<?xml version="1.0" encoding="UTF-8"?>
<svg id="Layer_2" data-name="Layer 2" xmlns="http://www.w3.org/2000/svg" viewBox="0 0 487.61 485.69">
  <defs>
    <style>
      .cls-1 {
        fill: #f184b4;
      }
    </style>
  </defs>
  <g id="Layer_3" data-name="Layer 3">
    <g>
      <path class="cls-1" d="M117.98,340.41c-2.32,3.58-1.86,5.71,1.01,4.88,2.26-.65,6.34-3.93,8.26-6.91,2.18-3.38,5.85-6.06,11.52-9,2.18-1.12,8.33-2.75,9.9-2.72,2.07.21,4.45,1.47,2.47,4.81-1.75,2.79,1.76,4.05,5.37,3.01,5.69-1.81,4.57,6.22-3.29,18.97l-12.88,20.93c-3.18,5.18-17.94,26.48-22.16,27.63-1.72.47-8.19,8.2-10.16,11.39-3.45,5.58-6.47,7.06-8.78,8.68-9.4,6.02-21.42,6.94-25.65,10.72-3.13,2.66-7.04,4.86-9.87,4.13-1.81-.67-9.48,6.16-13.18,11.93l-8.41,13.12c-1.78,2.79-1.5,4.86,2.37,3.85,3.55-.93,4.81.9,2.67,4.28-2.27,3.58-10.7,7.27-15.24,8.45l-24.85,6.45c-6.83,1.77-8.09-.21-6.39-2.79,2.23-3.38,7.38-6.53,10.78-7.42,7.24-2.06,12.71-9.42,20.95-21.47l41.28-63.15c13.3-21.23,6.69-21.94,13.27-31.86,2.24-3.37,7.41-5.82,11.65-7.03,1.97-.56,7.7-4.63,9.91-8,2.08-3.18,5.62-7.1,9.07-8.1,3.3-.96,2.33,2.23.39,5.21ZM102.37,370.46l-26.1,40.55c-2.94,4.57-3.3,9.6.16,8.66l16.98-4.61c4.24-1.15,10.17-7.73,13.03-12.31l25.68-41.02c4-6.37,5.75-11.94,2.72-11.07-2.12.61-3.64.06-.74-4.51,2.15-3.38,2.36-6.05-.81-5.14-3.75,1.24-7.12,4.97-9.03,7.95-.89,1.39-4.55,6.34-8.04,7.33-3.8,1.08-10.11,8.56-13.85,14.17Z"/>
      <path class="cls-1" d="M222.6,352.09c-7.37,13.02-15.3,24.51-18.71,25.46-1.7.47-7.31,6.41-10.39,11.82-5.24,9.21-12.35,12.84-19.15,16.38-5.57,2.52-28.14,8.47-30.23,8.2-3.54-.04-5.38-1.39-3.72-4.18.95-1.6.86-4.08-.7-3.65-3.14.86-5.1-3.28-1.96-8.47,2.11-3.91,3.87-7.88,4.34-11,.93-4.07-2.89-2.02,1.73-9.6l4.63-7.58c.98-1.6,6.86-10.19,10.83-11.31,1.53-.43,6.79-4.73,9.45-9.12l3.51-5.79c2.66-4.39,8.89-11.78,17.02-14.13,3.79-.93,10.57-5.2,12.95-9.2,1.79-3,7.07-7.51,17.05-10.43,27.22-7.98,18.22,16.35,3.35,42.6ZM161.55,374.42c-13.12,22.12-9.31,27.6.24,24.99l7.51-2.06c7.5-2.06,22.13-17.86,29.27-30.27l9.35-16.21c11.79-20.41,13.16-30.96,1.31-27.53l-4.05,1.17c-9.01,2.61-18.81,9.4-35.01,35.53l-8.62,14.38Z"/>
      <path class="cls-1" d="M277.38,297.96c2.44-4.42,9.87-8.46,14.6-9.86,7.4-2.19,11.49.15,12.5,2.22,1.14,2.55,4.19,7.93-7.89,30.34-3.29,6.24-8.03,10.84-13.35,12.35-10.34,2.94-29.25,8.15-31.71,9.36-5.97,2.2-9.66,5.61-12.25,10.74-7.82,16.26-7.42,25.34-.09,23.99,5.16-.74,10.81-2.65,14.72-4.75,10.5-5.83,8.59-7.69,16.17-13.06,4.97-3.45,5.97-2.36,4.89,1.21-.8,2.28-2.14,6.09-3.67,8.75-4.42,7.42-10.44,13.55-19.81,15.6-2.6.37-12.02,5.01-14.18,9.03-1.51,2.81-4.24,6.65-5.97,7.12-1.57.43-1.37-1.69,1.01-6.1,1.41-2.61-1.2-3.95-5.68-3.07-26.11,6.79-5.8-34.2,22.27-70.46,4.01-5.36,10.26-12.72,17.4-14.96,2.61-.43,8.94-4.63,11.04-8.44ZM270.54,326.11c7.6-3.2,10.95-7.05,14.96-14.48,4.88-9.04,4.66-12.36-4.8-9.25-3.13.92-9.55,6.66-13.27,13.64-3.61,6.11-3.79,12.92,3.11,10.09Z"/>
      <path class="cls-1" d="M338.52,277.38c-1.25,2.42-2.73,4.56.53,3.6,7.98-2.36,3.85-7.97,21.35-13.18,14.25-4.25,3.08,9.39,14.41,5.86,10.78-3.19,4.97-11.64,24.9-17.61,13.32-3.99,17.15,7.21,5.12,33.12l-20.51,44.33c-1.87,4.05.95,4.32,3.41,3.63,3.53-.99,3.74,1.78,2.55,4.41-1.2,2.63-4.18,5.94-6.81,6.67l-23.19,6.45c-3.1.86-6.01-.08-4.28-3.73.86-1.82,4.53-6.18,8.99-7.43,4.46-1.25,9.84-9.61,15.8-22.36l13.67-29.13c7.13-15.17,2.05-19.76-3.28-18.19-11.79,3.66-24.92,21.7-31.32,34.82l-12,24.64c-5.89,12.12-5.65,17.11-1.18,15.87,3.24-.9,3.16,1.22,1.9,3.85-1.35,2.83-3.95,6-7.05,6.86l-24.52,6.78c-3.11.86-2.84-1.3-1.33-4.33,1.3-2.62,4.35-6.08,6.82-6.77,5.09-1.42,11.71-14.58,16.58-24.47l11.16-22.6c4.39-8.88,7.2-24.53-4.53-21.08-9.22,2.71-20.36,20.01-26.55,32.09l-12.46,24.38c-2.88,5.64-9.14,18.97-5.27,17.89,2.63-.73,2.8.78.97,4.41-1.42,2.82-4.2,5.67-7.31,6.53l-19.16,5.27c-2.65.73-3.06-1.57-1.8-3.99,1.57-3.02,4.33-6.02,7.12-6.8,3.87-1.07,13.11-16.4,17.37-24.66l12.81-24.76c3.23-6.24,7.08-16.59,3.79-15.63-2.09.61-2.67-1.44-.77-5.06,1.58-3.02,5.16-6.96,8.28-7.88,2.67-.79,6.02-7.23,7.49-10.04,1.47-2.82,4.14-5.31,6.79-6.1,2.06-.61,3.27.9,1.51,4.32Z"/>
      <path class="cls-1" d="M439.28,266.42c-1.91,4.26.64,7.21,4.35,6.11l5.79-1.7c2.67-.79,6.42.41,4.92,3.86-1.06,2.44,1.83,4.78,6.01,3.56l2.83-.83c7.6-2.22,5.1,9.92-2.29,26.88-5.07,11.11-13.47,22.44-21.6,24.73-3.9.92-10.41,5.07-11.99,8.72-1.93,4.47-5.43,7.23-8.52,8.09-3.09.86-4.5-.89-2.9-4.54,1.51-3.45.38-5.8-7-3.74-5.85,1.64-10.97-.12-6.46-10.41,3.2-7.09,7.43-12.36,11.23-13.44,3.04-.87,3.8,1.57,2.18,5.22-2.35,5.27,8.53,2.73,14.08,1.33,21.42-5.01,23.67-18.15,16.77-15.99-4.39,1.26-5.02-.34-3.22-3.88,1.67-3.86-2.57-5.29-7.99-3.73l-3.91,1.13c-5.72,1.65-8.25,7.33-9.76,6-1.03-.94,1.12-2.79,3.53-6.14,4.06-5.59,2.52-8.85-.02-8.99-3.94.09-1.15-8.64.02-11.79,2.17-5.9,5.34-13.15,10.4-20.09,1.99-2.7,4.17-5.27,6.66-6.02,1.9-.57,5.54-3.59,7.18-7.24.64-1.42,2.13-3.62,5.68-5.92,6.81-3.99,12.15-5.26,17.95-7.02,15.66-4.75,17.06,4.73,11.32,17.99-2.06,4.88-6.94,13.97-11.38,15.28-8.86,2.26-10.23-8.84-7.84-14.32,1.86-4.26.67-6.2-4.42-4.14-4.1,1.23-18.6,14.35-21.6,21.04Z"/>
    </g>
    <g>
      <path class="cls-1" d="M151.91,166l-57.94,125.59c-2.5,5.43-3.04,12.03,1.99,10.57,3.05-.89,5.66-1.12,3.66,3.31-2.64,5.84-6.5,8.18-10.64,9.37l-29.59,8.52c-3.83,1.1-3.64-2.07-1.72-6.08,1.15-2.41,3.4-5.48,7.06-6.55,3.35-.97,7.2-6.08,10.52-13.11l47.66-101.03c2.18-4.62,2.9-10.47.78-9.78-2.4.78-3.95.27-1.94-3.95,2.88-6.02,8.31-8.48,14.49-10.51,2.25-.74,7.53-4.18,9.5-8.4,1.59-3.42,3.09-5.1,6.29-6.17s2.79,1.63-.12,8.22Z"/>
      <path class="cls-1" d="M197.14,240.85c-5.32,13.19-11.48,24.83-14.81,25.81-1.66.49-6.39,6.51-8.63,11.99-3.81,9.33-10.46,13.03-16.81,16.64-5.26,2.58-27.26,8.73-29.43,8.47-3.61-.02-5.7-1.36-4.47-4.18.71-1.61.2-4.11-1.32-3.67-3.05.89-5.72-3.26-3.39-8.5,1.49-3.94,2.62-7.96,2.58-11.09.27-4.1-3.27-2,.17-9.66l3.44-7.66c.72-1.61,5.26-10.3,9.11-11.47,1.48-.45,6.1-4.82,8.07-9.26l2.59-5.85c1.97-4.44,7.05-11.93,14.92-14.38,3.7-.98,9.88-5.35,11.62-9.39,1.31-3.03,5.91-7.62,15.6-10.67,26.46-8.32,21.46,16.28,10.75,42.85ZM138.62,263.85c-9.65,22.36-4.87,27.84,4.42,25.14l7.31-2.13c7.31-2.13,19.58-18.16,24.78-30.72l6.79-16.41c8.56-20.66,8.14-31.29-3.38-27.71l-3.93,1.22c-8.74,2.72-17.57,9.65-29.63,36.07l-6.36,14.53Z"/>
      <path class="cls-1" d="M253.18,176.98c3.61-1.14,6.8.55,5.58,3.81-1,2.65-3.46,6.47-6.52,7.42-2.62.82-7.9,8.91-9.76,13.8l-6.22,16.28c-2.64,6.92-.4,9.67,1.54,9.08,1.79-.54,2.66,1.37,1.28,5.03-1,2.65-.8,6.03,2.2,5.13,3.45-1.03,8.35-9.92,9.41-12.77l16.16-43.62c1.51-4.08,4.85-9.99,10.64-11.81l10.12-3.18c6.8-2.14,8.61,1.47,7.09,5.76-.87,2.45-3.27,4.47-5.6,5.2-2.62.82-7.08,7.46-8.77,12.16l-1.03,2.86c-1.03,2.86-5.43,12.93-9.57,14.19-2.96.9-8.08,10.62-8.75,12.46l-1.71,4.69c-1.34,3.67-5.23,10.28-7.48,10.95-3.45,1.03-7.97,8.9-9.48,12.98l-6.04,16.31c-2.42,6.52-9.52,12.75-14.28,14.12s-7.8-2.1-5.24-8.46l1.63-4.27c1.56-4.07.94-9.49-1.02-8.91-2.57.76-2.25-4.56-.59-8.83l6.7-17.28c.79-2.03,2.48-10.44-.03-9.68-3.11.94-2.62-4.93-.78-9.6l1.2-3.05c.8-2.03,3.47-11.42-.02-10.33-2.62.82-3.61-1.19-2.31-4.44,1.46-3.65,5.65-7.81,10.71-9.4l20.96-6.6Z"/>
      <path class="cls-1" d="M323.63,160.87c1.51-4.51,8.34-8.67,12.97-10.13,7.23-2.27,12.06.08,13.61,2.18,1.79,2.58,6.25,8.06-1.2,30.97-2,6.37-5.91,11.09-11.12,12.65-10.13,3.05-28.68,8.44-30.97,9.69-5.72,2.27-8.79,5.77-10.3,11-4.44,16.59-1.97,25.83,5.37,24.44,5.21-.77,10.67-2.74,14.27-4.9,9.63-5.97,7.22-7.87,13.91-13.37,4.41-3.53,5.7-2.42,5.38,1.22-.32,2.33-.85,6.22-1.84,8.94-2.93,7.58-7.83,13.85-17.14,15.97-2.63.38-11.4,5.14-12.75,9.24-.94,2.87-2.92,6.78-4.62,7.27-1.54.44-1.81-1.71-.32-6.22.88-2.67-2.14-4.02-6.6-3.11-25.62,7-13.78-34.79,7.12-71.84,2.94-5.48,7.76-13,14.68-15.33,2.63-.45,8.26-4.77,9.56-8.66ZM323.02,189.57c7.2-3.3,9.81-7.24,12.28-14.83,3-9.24,2-12.62-7.17-9.4-3.06.95-8.43,6.84-10.7,13.97-2.36,6.24-.97,13.17,5.58,10.26Z"/>
    </g>
    <g>
      <path class="cls-1" d="M94.6,96.22c3.6.2,4.68,1.97,3.66,6.93-1.09,5.85-4.05,12.22-8.94,20.16-3.18,5.04-6.31,7.98-9.83,7.2-3.09-.37-6.65-4.93-1.58-14.8.83-1.61,1.47-4.55-.53-4.51-4.11.28-6.92.2-14.36,4.5-4.32,2.57-8.67,6.35-12.63,11.74-6.18,8.4-12.14,17.76-18.01,31.23-2.55,6.03-1.43,7.28-.05,7.09,2.4.05,1.41,2.91.33,5.44-1.98,4.51-2.38,4.79-3.47,7.85-1.09,3.06-1,5.12.43,6.82,2.26,2.88,20.8-1.81,25.3-9.62,1.28-2.26,2.4-3.95,4.61-5.75,4.47-3.45,4.79-1.79,5.01.07.13,1.54-.95,4.97-2.68,8.4-2.85,5.64-5.87,8.01-10.07,11.38-7.69,5.85-34.8,14.46-43.18,11.78-3.4-1.19-4.06-6.03-1.44-11.9,2.13-4.7,5.78-11.53,6.75-14.55.7-3.46.2-4.18-3.56-4.04-1.71.11-1.68-2.3.16-5.71,1.3-2.41,3.7-5.46,7.72-7.05,2.28-.96,4.6-3.65,7.57-7.54,2.56-3.61,4.09-6.95,6.21-10.44,2.12-3.49,6.08-9.04,9.93-10.44,1.71-.64,4.78-2.69,7.13-7.11,1.7-3.21,4.96-7.03,8.44-8,2.03-.56,5.53-3.94,6.73-5.99,1.98-3.3,4.84-5.47,9.89-8.09,7.95-3.95,13.04-5.72,20.45-5.04Z"/>
      <path class="cls-1" d="M133,84.25c6.76-1.9,6.69,9.83.84,21.96l-8,16.58c-3.12,6.47-8.92,19.82-3.14,18.27,4.56-.87,16.2-11.23,28.45-37.14,7.9-16.44,17.96-29.79,24.86-31.73l9.64-2.7c3.45-.97,5.13,1.39,3.74,4.43-1.12,2.43-3.54,7.18-8.9,8.67-6.81,1.89-18.9,16.7-24.88,29.47l-3.13,6.68c-2.65,5.67-9,17.29-13.3,18.44-2.47.84-8.95,10.71-10.83,14.39-1.53,3.24-4.11,9.23-8.61,10.42-2.7.71-6.88,5.35-9.59,11.01-1.93,4.05-4.96,9.26-9.34,10.4-2.12.55-6.9,5.5-9.24,10.35l-2.25,4.65s-4.24,7.11-7.75,8.01c-2.75.7-7.51,6.34-10.17,11.8-2.96,6.06-7.96,11.04-14.75,12.75-5.1,1.28-4.35-4.02-2.75-7.25,3.71-7.47,7.13-12.22,13.86-13.94,3.21-.82,11.08-7.08,13.64-12.33,2.96-6.06,7.45-10.93,10.48-11.72,1.97-.51,6.14-5.31,8.58-10.36,2.15-4.45,2.4-7.69-.01-8.11-2.86-.3-1.9-4.96,1.16-11.22l4.14-8.49c1.68-3.43,4.73-12.86,1.49-11.98-2.26.44-1.74-3.73.54-8.38l2.49-5.05c2.78-5.65,1.81-9.05-.23-8.49s-2.78-1.5-.87-5.34,1.67-6.38-.79-5.69c-2.32.64-3.81-.85-1.68-5.09,1.82-3.63,8.19-8.19,11.21-9.03l15.1-4.24Z"/>
      <path class="cls-1" d="M219.55,16.79c1.11-1.91,6.19-4.8,9.34-8.01,3.57-3.33,5.97-5.98,10.29-7.77,4.64-2.24,8.06-.95,5.42,5.83-1.07,2.97-13.04,29.47-19.14,43.82-2.07,4.67-1.57,8.09,3.47,6.68l10.07-2.82c24.77-7.31,15.96,20.72,11.51,33.85-.92,3.14-4.59,13.18-7.84,18.76-4.87,8.18-11.46,14.1-16.69,25.26-4.1,8.15-10.28,13.57-20.19,20.13-13.47,8.2-29.09,10.45-41.74,12.12-5.31-.05-3.66-3.7,0-11.82l52-115.09c1.05-2.6,3.5-10.19.25-9.25-3.53,1.02-3.1-4.74,3.24-11.68ZM187.72,135.65c-2.58,6.42-1.47,9,2.44,7.98,13.2-3.47,17.92-4.53,21.34-7.24,3.66-2.95,6.01-6.28,8.58-10.76,1.99-3.42,5.1-5.15,7.94-10.6,3.04-6.23,4.05-8.31,6.52-14.75.89-2.41,2.22-7.99,2.18-9.42-.46-2.58-1.91-5.24-.58-9.56.58-1.96-1.4-3.92-3.88-3.24-2.33.64-2.81-2.09-1.02-6.53.91-2.4-.49-6.48-8.83.66-2.69,2.35-7.8,7.87-12.06,10.3-3.74,2.1-8.92,11.73-7.9,13.77,1.59,1.35,1.22,3.06-.22,6.31l-14.51,33.09Z"/>
      <path class="cls-1" d="M293.81,45.13c1.81-4.49,8.76-8.44,13.36-9.73,7.19-2.02,11.7.54,13.04,2.73,1.54,2.67,5.43,8.36-3.59,31.17-2.44,6.35-6.59,10.96-11.75,12.35-10.03,2.71-28.39,7.48-30.7,8.65-5.71,2.09-8.94,5.5-10.8,10.73-5.56,16.59-3.88,26,3.3,24.84,5.08-.6,10.51-2.39,14.14-4.45,9.76-5.69,7.58-7.68,14.48-13,4.53-3.41,5.7-2.24,5.1,1.41-.49,2.34-1.32,6.24-2.49,8.94-3.43,7.53-8.65,13.68-17.79,15.5-2.56.3-11.39,4.8-13.01,8.89-1.13,2.86-3.35,6.74-5.02,7.17-1.52.39-1.61-1.79.18-6.28,1.06-2.66-1.75-4.13-6.12-3.36-25.23,6.2-10.65-35.59,12.36-72.26,3.26-5.42,8.5-12.84,15.38-14.93,2.58-.36,8.37-4.5,9.93-8.38ZM291.03,74.07c7.23-3.06,10.06-6.94,13.04-14.51,3.62-9.2,2.91-12.65-6.22-9.75-3.04.84-8.7,6.59-11.43,13.7-2.76,6.21-1.95,13.26,4.62,10.56Z"/>
      <path class="cls-1" d="M359.76,30.96c2.31-.64,6.19-4.49,7.31-7.57,1.8-4.93,7.43-8.35,11.89-9.6,6.75-1.9,8.16,3.26,5.68,10.25-1.97,5.55-9.03,14.36-15,16-8.59,2.37-15.66,10.59-17.47,15.51l-11.21,30.58c-1.66,4.52-4.14,10.55-6.67,11.22-2.24.59-5.4,4.02-6.61,7.3-1.14,3.08,1.18,5.99,4.78,5.04l6.16-1.62c3.76-.99,6.1.82,4.63,4.93-.96,2.67-3.21,5.49-8.05,6.75l-28.27,7.35c-3.48.9-7.25,1.15-5.61-3.16,1.25-3.28,5.28-7.47,8.74-8.38,3.16-.83,7.58-8.27,9.58-13.6l16-42.64c2.08-5.53,1.31-10.1-1.6-9.3-3.35.92-3.64-1.75-2.31-5.23,1.4-3.69,4.31-7.24,7.64-8.17s6.35-4.15,7.81-8.05c3.46-9.23,12.64-11.44,9.37-2.62-1.75,4.72.75,5.68,3.21,5Z"/>
    </g>
  </g>
</svg>