<?xml version="1.0" encoding="UTF-8"?>
<svg id="Layer_2" data-name="Layer 2" xmlns="http://www.w3.org/2000/svg" viewBox="0 0 897.8 894.26">
  <defs>
    <style>
      .cls-1 {
        fill: #f184b4;
      }
    </style>
  </defs>
  <g id="Layer_3" data-name="Layer 3">
    <g>
      <path class="cls-1" d="M217.22,626.77c-4.28,6.59-3.43,10.51,1.85,8.99,4.17-1.2,11.67-7.24,15.21-12.73,4-6.22,10.78-11.16,21.21-16.58,4.01-2.06,15.35-5.06,18.23-5,3.8.39,8.2,2.7,4.55,8.85-3.23,5.13,3.25,7.46,9.9,5.54,10.47-3.33,8.41,11.44-6.06,34.93l-23.71,38.54c-5.87,9.54-33.04,48.75-40.8,50.88-3.16.87-15.08,15.1-18.71,20.97-6.35,10.27-11.91,13-16.18,15.99-17.31,11.08-39.44,12.77-47.23,19.73-5.77,4.89-12.95,8.94-18.16,7.61-3.33-1.23-17.45,11.34-24.26,21.96l-15.49,24.16c-3.29,5.13-2.77,8.95,4.36,7.08,6.53-1.71,8.86,1.65,4.91,7.88-4.18,6.6-19.7,13.39-28.06,15.56l-45.76,11.88c-12.58,3.26-14.9-.38-11.77-5.13,4.1-6.21,13.6-12.02,19.85-13.66,13.33-3.79,23.4-17.34,38.58-39.52l76-116.28c24.49-39.08,12.32-40.39,24.43-58.66,4.12-6.21,13.65-10.72,21.45-12.95,3.62-1.04,14.17-8.52,18.24-14.73,3.83-5.85,10.35-13.07,16.71-14.91,6.07-1.76,4.28,4.1.72,9.59ZM188.49,682.1l-48.05,74.67c-5.41,8.42-6.08,17.67.29,15.94l31.27-8.49c7.81-2.13,18.73-14.23,24-22.66l47.29-75.53c7.36-11.73,10.58-21.98,5-20.38-3.91,1.12-6.71.11-1.37-8.31,3.95-6.23,4.34-11.13-1.49-9.45-6.9,2.28-13.1,9.15-16.62,14.64-1.64,2.56-8.38,11.67-14.81,13.5-7,1.99-18.62,15.76-25.51,26.08Z"/>
      <path class="cls-1" d="M409.85,648.28c-13.56,23.98-28.17,45.14-34.44,46.88-3.14.87-13.46,11.8-19.13,21.76-9.66,16.96-22.74,23.64-35.27,30.16-10.26,4.65-51.81,15.6-55.65,15.1-6.52-.09-9.91-2.56-6.84-7.71,1.76-2.94,1.59-7.51-1.3-6.72-5.78,1.57-9.38-6.04-3.6-15.59,3.87-7.19,7.11-14.51,7.98-20.25,1.71-7.5-5.33-3.71,3.19-17.67l8.53-13.95c1.79-2.94,12.63-18.76,19.94-20.82,2.81-.8,12.5-8.71,17.4-16.79l6.46-10.65c4.91-8.08,16.37-21.69,31.33-26.01,6.98-1.71,19.46-9.58,23.84-16.94,3.29-5.52,13.01-13.82,31.39-19.2,50.12-14.7,33.55,30.11,6.16,78.42ZM297.46,689.38c-24.15,40.73-17.14,50.82.44,46.01l13.83-3.78c13.82-3.78,40.74-32.89,53.9-55.74l17.21-29.85c21.71-37.58,24.23-57.01,2.41-50.68l-7.46,2.16c-16.6,4.8-34.63,17.31-64.45,65.41l-15.87,26.47Z"/>
      <path class="cls-1" d="M510.72,548.61c4.48-8.13,18.17-15.57,26.89-18.14,13.62-4.03,21.15.28,23.01,4.09,2.11,4.68,7.72,14.61-14.53,55.87-6.05,11.48-14.79,19.95-24.58,22.74-19.03,5.42-53.85,15.01-58.39,17.23-11,4.05-17.79,10.34-22.55,19.78-14.4,29.94-13.67,46.65-.17,44.18,9.5-1.37,19.91-4.87,27.1-8.75,19.32-10.72,15.82-14.16,29.78-24.05,9.15-6.35,10.99-4.33,9,2.22-1.48,4.21-3.95,11.22-6.76,16.11-8.14,13.65-19.22,24.94-36.46,28.72-4.78.68-22.13,9.22-26.11,16.62-2.78,5.18-7.81,12.23-11,13.1-2.9.79-2.53-3.1,1.86-11.24,2.6-4.81-2.21-7.28-10.45-5.65-48.07,12.49-10.68-62.96,41-129.73,7.39-9.87,18.9-23.41,32.03-27.55,4.81-.78,16.45-8.52,20.32-15.54ZM498.13,600.45c13.99-5.89,20.16-12.98,27.53-26.66,8.98-16.64,8.58-22.76-8.83-17.04-5.77,1.69-17.59,12.27-24.43,25.12-6.65,11.24-6.98,23.79,5.72,18.58Z"/>
      <path class="cls-1" d="M623.3,510.72c-2.29,4.45-5.02,8.4.97,6.63,14.7-4.35,7.08-14.67,39.31-24.27,26.23-7.83,5.67,17.28,26.53,10.79,19.84-5.88,9.15-21.44,45.85-32.42,24.52-7.35,31.58,13.28,9.42,60.98l-37.76,81.63c-3.44,7.46,1.75,7.95,6.27,6.68,6.5-1.83,6.9,3.27,4.69,8.12-2.2,4.85-7.7,10.94-12.54,12.29l-42.7,11.88c-5.7,1.58-11.06-.16-7.89-6.86,1.59-3.35,8.34-11.38,16.56-13.67,8.21-2.3,18.12-17.7,29.1-41.17l25.16-53.64c13.14-27.93,3.77-36.38-6.04-33.48-21.71,6.73-45.88,39.95-57.67,64.11l-22.09,45.36c-10.84,22.31-10.4,31.51-2.17,29.21,5.96-1.66,5.81,2.25,3.49,7.08-2.49,5.21-7.26,11.05-12.97,12.64l-45.14,12.49c-5.72,1.58-5.22-2.4-2.45-7.97,2.4-4.83,8.01-11.19,12.56-12.46,9.38-2.61,21.55-26.85,30.53-45.05l20.55-41.61c8.09-16.35,13.26-45.16-8.34-38.81-16.97,4.98-37.49,36.84-48.88,59.09l-22.94,44.88c-5.3,10.39-16.83,34.93-9.71,32.95,4.84-1.35,5.15,1.44,1.78,8.12-2.62,5.2-7.73,10.44-13.46,12.02l-35.27,9.71c-4.88,1.34-5.63-2.9-3.31-7.35,2.89-5.56,7.97-11.09,13.11-12.51,7.13-1.98,24.13-30.2,31.98-45.4l23.58-45.59c5.95-11.49,13.03-30.54,6.97-28.78-3.85,1.12-4.91-2.65-1.41-9.32,2.91-5.56,9.5-12.82,15.24-14.51,4.92-1.45,11.09-13.31,13.79-18.49,2.7-5.19,7.61-9.78,12.49-11.23,3.79-1.13,6.02,1.66,2.77,7.96Z"/>
      <path class="cls-1" d="M808.82,490.55c-3.51,7.84,1.18,13.27,8.02,11.26l10.66-3.13c4.92-1.45,11.81.76,9.05,7.11-1.95,4.49,3.37,8.81,11.06,6.56l5.22-1.53c14-4.09,9.39,18.26-4.23,49.49-9.33,20.45-24.8,41.32-39.76,45.53-7.18,1.69-19.17,9.33-22.07,16.06-3.55,8.23-10,13.31-15.69,14.9-5.7,1.58-8.29-1.64-5.35-8.36,2.78-6.35.71-10.69-12.88-6.88-10.76,3.01-20.2-.21-11.9-19.16,5.9-13.06,13.69-22.76,20.68-24.75,5.59-1.59,7,2.89,4.01,9.61-4.32,9.71,15.69,5.02,25.92,2.45,39.44-9.22,43.57-33.42,30.88-29.45-8.08,2.31-9.25-.63-5.94-7.14,3.08-7.1-4.74-9.75-14.71-6.87l-7.21,2.08c-10.53,3.04-15.19,13.49-17.97,11.04-1.89-1.73,2.06-5.15,6.5-11.31,7.48-10.29,4.64-16.29-.03-16.56-7.26.16-2.12-15.9.04-21.71,3.99-10.87,9.83-24.22,19.16-36.99,3.65-4.96,7.67-9.71,12.26-11.08,3.51-1.05,10.2-6.61,13.22-13.33,1.17-2.61,3.92-6.67,10.46-10.9,12.53-7.35,22.36-9.68,33.05-12.92,28.83-8.75,31.41,8.71,20.84,33.12-3.8,8.98-12.78,25.72-20.95,28.13-16.31,4.16-18.83-16.27-14.43-26.37,3.42-7.85,1.24-11.41-8.14-7.62-7.54,2.26-34.24,26.42-39.76,38.74Z"/>
    </g>
    <g>
      <path class="cls-1" d="M279.69,305.65l-106.68,231.22c-4.6,10-5.59,22.16,3.66,19.47,5.61-1.63,10.43-2.07,6.74,6.09-4.86,10.75-11.96,15.06-19.58,17.25l-54.48,15.68c-7.06,2.03-6.7-3.81-3.17-11.2,2.12-4.43,6.27-10.1,12.99-12.05,6.17-1.79,13.26-11.2,19.37-24.14l87.76-186.01c4.01-8.51,5.34-19.27,1.44-18-4.43,1.44-7.27.49-3.57-7.27,5.3-11.08,15.3-15.62,26.68-19.36,4.14-1.36,13.87-7.69,17.49-15.47,2.93-6.29,5.68-9.39,11.58-11.35s5.14,3-.23,15.14Z"/>
      <path class="cls-1" d="M362.97,443.45c-9.79,24.28-21.14,45.72-27.26,47.52-3.06.9-11.76,12-15.88,22.07-7.02,17.17-19.26,23.99-30.96,30.64-9.69,4.76-50.2,16.08-54.19,15.6-6.65-.04-10.5-2.5-8.23-7.7,1.3-2.97.37-7.57-2.43-6.76-5.61,1.63-10.53-5.99-6.24-15.65,2.74-7.26,4.82-14.65,4.75-20.43.5-7.55-6.03-3.68.31-17.78l6.33-14.1c1.33-2.97,9.69-18.97,16.77-21.12,2.72-.83,11.24-8.88,14.86-17.05l4.78-10.77c3.62-8.17,12.98-21.96,27.47-26.47,6.81-1.8,18.19-9.84,21.4-17.28,2.41-5.58,10.89-14.03,28.72-19.64,48.71-15.33,39.52,29.97,19.79,78.9ZM255.24,485.81c-17.77,41.17-8.97,51.26,8.13,46.29l13.46-3.91c13.46-3.91,36.05-33.44,45.62-56.56l12.51-30.21c15.75-38.04,14.98-57.62-6.22-51.03l-7.24,2.25c-16.1,5-32.34,17.76-54.56,66.41l-11.71,26.76Z"/>
      <path class="cls-1" d="M466.17,325.87c6.65-2.09,12.52,1.02,10.26,7.02-1.83,4.87-6.38,11.92-12.01,13.67-4.83,1.5-14.54,16.41-17.98,25.4l-11.45,29.97c-4.87,12.74-.73,17.8,2.84,16.72,3.29-.99,4.89,2.52,2.35,9.27-1.84,4.87-1.48,11.1,4.05,9.45,6.36-1.89,15.37-18.26,17.32-23.52l29.76-80.32c2.78-7.51,8.93-18.39,19.58-21.74l18.63-5.86c12.51-3.94,15.84,2.71,13.05,10.61-1.6,4.52-6.01,8.23-10.31,9.57-4.83,1.5-13.03,13.74-16.14,22.39l-1.89,5.26c-1.89,5.26-10,23.81-17.63,26.12-5.45,1.66-14.89,19.55-16.12,22.93l-3.15,8.64c-2.47,6.76-9.62,18.93-13.77,20.17-6.36,1.89-14.68,16.39-17.46,23.89l-11.13,30.02c-4.45,12.01-17.53,23.48-26.29,26s-14.36-3.88-9.64-15.57l3.01-7.87c2.86-7.49,1.73-17.47-1.88-16.41-4.73,1.39-4.14-8.4-1.09-16.26l12.34-31.82c1.45-3.74,4.57-19.22-.06-17.81-5.72,1.74-4.82-9.07-1.43-17.67l2.21-5.61c1.47-3.74,6.4-21.03-.04-19.02-4.83,1.5-6.64-2.19-4.25-8.17,2.69-6.73,10.4-14.38,19.72-17.31l38.6-12.14Z"/>
      <path class="cls-1" d="M595.89,296.19c2.79-8.3,15.36-15.97,23.88-18.65,13.31-4.19,22.21.15,25.05,4.02,3.3,4.76,11.5,14.84-2.22,57.02-3.68,11.73-10.87,20.41-20.47,23.3-18.65,5.61-52.8,15.54-57.02,17.83-10.53,4.18-16.18,10.61-18.97,20.25-8.17,30.55-3.63,47.56,9.88,44.99,9.59-1.43,19.65-5.04,26.27-9.01,17.74-11,13.29-14.49,25.62-24.62,8.12-6.5,10.5-4.46,9.91,2.24-.59,4.3-1.57,11.46-3.39,16.46-5.4,13.95-14.42,25.5-31.56,29.4-4.84.71-21,9.46-23.47,17.02-1.73,5.29-5.38,12.49-8.51,13.38-2.84.81-3.34-3.15-.59-11.46,1.62-4.91-3.94-7.41-12.16-5.73-47.17,12.89-25.38-64.05,13.11-132.26,5.42-10.08,14.29-23.93,27.03-28.23,4.84-.83,15.2-8.78,17.61-15.95ZM594.75,349.03c13.26-6.08,18.07-13.33,22.61-27.31,5.52-17,3.69-23.23-13.19-17.3-5.63,1.75-15.52,12.6-19.69,25.72-4.34,11.48-1.79,24.25,10.27,18.89Z"/>
    </g>
    <g>
      <path class="cls-1" d="M174.17,177.16c6.63.37,8.62,3.64,6.73,12.77-2,10.77-7.46,22.5-16.46,37.12-5.85,9.28-11.61,14.69-18.09,13.26-5.69-.68-12.25-9.09-2.9-27.25,1.53-2.96,2.71-8.38-.98-8.31-7.57.52-12.73.37-26.44,8.29-7.96,4.74-15.96,11.69-23.25,21.61-11.39,15.46-22.36,32.7-33.16,57.5-4.7,11.11-2.64,13.41-.1,13.05,4.41.09,2.59,5.35.61,10.02-3.64,8.3-4.39,8.81-6.4,14.44-2,5.63-1.85,9.42.8,12.56,4.16,5.3,38.29-3.33,46.59-17.72,2.35-4.15,4.42-7.27,8.49-10.59,8.22-6.35,8.82-3.3,9.23.13.24,2.83-1.75,9.15-4.94,15.46-5.24,10.39-10.82,14.75-18.54,20.95-14.16,10.77-64.08,26.62-79.5,21.69-6.26-2.19-7.47-11.1-2.65-21.91,3.91-8.66,10.63-21.23,12.42-26.78,1.3-6.37.37-7.7-6.56-7.43-3.15.21-3.09-4.23.3-10.51,2.39-4.43,6.82-10.05,14.2-12.99,4.2-1.77,8.48-6.72,13.94-13.88,4.72-6.65,7.54-12.79,11.44-19.22,3.9-6.43,11.19-16.64,18.29-19.22,3.14-1.18,8.81-4.95,13.12-13.09,3.14-5.92,9.14-12.95,15.53-14.73,3.73-1.04,10.18-7.26,12.39-11.03,3.64-6.07,8.91-10.07,18.21-14.89,14.63-7.27,24.01-10.54,37.65-9.28Z"/>
      <path class="cls-1" d="M244.88,155.11c12.45-3.49,12.32,18.11,1.54,40.44l-14.74,30.52c-5.75,11.91-16.43,36.48-5.78,33.63,8.39-1.59,29.82-20.68,52.38-68.38,14.55-30.26,33.07-54.85,45.78-58.42l17.74-4.98c6.36-1.78,9.44,2.56,6.88,8.16-2.05,4.48-6.52,13.22-16.39,15.96-12.53,3.48-34.81,30.75-45.8,54.25l-5.76,12.31c-4.89,10.44-16.57,31.84-24.5,33.96-4.55,1.54-16.48,19.71-19.93,26.49-2.82,5.96-7.56,17-15.85,19.18-4.97,1.31-12.67,9.85-17.66,20.28-3.56,7.45-9.12,17.05-17.21,19.15-3.9,1.01-12.69,10.13-17.01,19.06l-4.13,8.56s-7.8,13.09-14.27,14.74c-5.07,1.3-13.82,11.67-18.72,21.72-5.44,11.16-14.65,20.33-27.16,23.48-9.38,2.36-8.01-7.41-5.06-13.36,6.82-13.75,13.13-22.5,25.52-25.67,5.91-1.51,20.4-13.03,25.12-22.7,5.44-11.16,13.71-20.13,19.29-21.58,3.62-.94,11.3-9.77,15.79-19.07,3.95-8.19,4.43-14.16-.02-14.94-5.27-.56-3.49-9.13,2.13-20.66l7.62-15.62c3.08-6.32,8.71-23.67,2.74-22.06-4.16.8-3.21-6.87,1-15.42l4.58-9.29c5.13-10.41,3.34-16.67-.42-15.63s-5.11-2.76-1.6-9.82,3.09-11.74-1.45-10.49c-4.26,1.18-7.01-1.57-3.1-9.36,3.36-6.68,15.08-15.07,20.64-16.63l27.81-7.8Z"/>
      <path class="cls-1" d="M404.25,30.92c2.05-3.51,11.4-8.83,17.21-14.74,6.57-6.14,10.99-11,18.93-14.31,8.53-4.13,14.85-1.76,9.99,10.74-1.97,5.46-24.02,54.25-35.25,80.67-3.81,8.61-2.88,14.9,6.39,12.3l18.54-5.2c45.6-13.45,29.39,38.14,21.18,62.33-1.7,5.79-8.45,24.26-14.43,34.53-8.97,15.07-21.1,25.96-30.73,46.51-7.55,15-18.92,24.98-37.17,37.07-24.81,15.1-53.56,19.24-76.85,22.31-9.78-.09-6.75-6.82,0-21.77l95.75-211.9c1.93-4.78,6.44-18.76.47-17.04-6.5,1.87-5.71-8.73,5.96-21.51ZM345.64,249.75c-4.75,11.83-2.7,16.58,4.48,14.69,24.31-6.4,32.99-8.35,39.29-13.33,6.73-5.43,11.06-11.57,15.79-19.8,3.66-6.29,9.39-9.48,14.62-19.52,5.59-11.47,7.46-15.3,12-27.15,1.64-4.43,4.09-14.72,4.01-17.35-.85-4.74-3.52-9.64-1.06-17.6,1.07-3.6-2.58-7.23-7.14-5.97-4.29,1.18-5.18-3.85-1.87-12.02,1.68-4.42-.91-11.93-16.25,1.21-4.95,4.33-14.35,14.49-22.21,18.96-6.89,3.87-16.43,21.59-14.55,25.35,2.93,2.49,2.25,5.64-.4,11.62l-26.72,60.92Z"/>
      <path class="cls-1" d="M540.98,83.09c3.33-8.27,16.12-15.53,24.6-17.91,13.24-3.71,21.54,1.01,24,5.02,2.83,4.92,9.99,15.39-6.61,57.39-4.49,11.69-12.13,20.17-21.63,22.74-18.47,4.99-52.26,13.78-56.52,15.93-10.51,3.84-16.46,10.13-19.89,19.76-10.23,30.54-7.15,47.86,6.07,45.74,9.36-1.11,19.34-4.4,26.04-8.19,17.97-10.47,13.96-14.15,26.66-23.93,8.35-6.27,10.49-4.13,9.38,2.6-.91,4.31-2.43,11.48-4.58,16.46-6.32,13.86-15.93,25.19-32.76,28.54-4.71.55-20.98,8.83-23.95,16.36-2.09,5.27-6.17,12.41-9.25,13.2-2.8.72-2.96-3.29.33-11.57,1.95-4.89-3.21-7.6-11.27-6.18-46.46,11.41-19.61-65.53,22.76-133.03,6.01-9.98,15.64-23.64,28.33-27.49,4.76-.65,15.41-8.29,18.29-15.43ZM535.85,136.38c13.31-5.64,18.52-12.78,24-26.71,6.67-16.95,5.36-23.29-11.46-17.95-5.6,1.55-16.01,12.13-21.05,25.22-5.08,11.43-3.58,24.42,8.51,19.45Z"/>
      <path class="cls-1" d="M662.41,57.01c4.26-1.18,11.39-8.26,13.46-13.93,3.31-9.07,13.68-15.38,21.89-17.68,12.44-3.49,15.03,6.01,10.46,18.88-3.62,10.22-16.63,26.44-27.62,29.46-15.82,4.35-28.84,19.49-32.16,28.56l-20.64,56.31c-3.05,8.31-7.62,19.42-12.29,20.66-4.13,1.09-9.93,7.4-12.17,13.44-2.1,5.67,2.16,11.03,8.81,9.29l11.35-2.98c6.92-1.82,11.24,1.5,8.52,9.07-1.77,4.92-5.91,10.11-14.82,12.42l-52.05,13.54c-6.4,1.67-13.34,2.11-10.33-5.81,2.3-6.03,9.72-13.75,16.09-15.42,5.81-1.52,13.95-15.23,17.63-25.04l29.46-78.51c3.82-10.19,2.41-18.6-2.95-17.13-6.17,1.7-6.69-3.22-4.25-9.63,2.58-6.79,7.93-13.34,14.06-15.04s11.69-7.65,14.39-14.82c6.37-16.99,23.27-21.06,17.26-4.82-3.22,8.69,1.38,10.46,5.91,9.2Z"/>
    </g>
  </g>
</svg>